<svg xmlns="http://www.w3.org/2000/svg" viewBox="0 0 178.36 110"><g id="Layer_2" data-name="Layer 2"><g id="OBJECTS"><path d="M170.89,84.81l7.47-8c-.85-4.3-1.18-5.93-2-10.23l-10-4.58c-1.28-3.11-2.06-5-3.34-8.08l3.81-10.29c-2.43-3.65-3.36-5-5.79-8.67l-11-.42-6.19-6.18-.41-11-8.67-5.79-10.29,3.81L116.41,12,111.83,2,101.6,0l-8,7.45H84.81L76.76,0,66.53,2,61.94,12l-8.09,3.34L43.56,11.54l-8.67,5.79-.41,11-6.19,6.18-11,.42c-2.44,3.64-3.36,5-5.79,8.67l3.81,10.29C14.05,57,13.29,58.84,12,62L2,66.53c-.87,4.3-1.18,5.93-2,10.23l7.45,8v8.74L0,101.6c.71,3.63,1.05,5.36,1.66,8.4h16a74.51,74.51,0,1,1,143.1,0h16c.59-3,.94-4.77,1.66-8.4l-7.47-8Z" style="fill:#3761E9"/><path d="M89.18,18.78A70.48,70.48,0,0,0,21.9,110H27a65.59,65.59,0,1,1,127.8-20.82A65.13,65.13,0,0,1,151.38,110h5.07A70.45,70.45,0,0,0,89.18,18.78Z" style="fill:#3761E9"/><path d="M133.05,67.17a11.31,11.31,0,0,0-5.81,1.63c-2.34-6.56-11.1-24-38.06-24s-35.73,17.4-38.07,24a11.28,11.28,0,0,0-5.81-1.63,3.82,3.82,0,0,0,0,7.63h4.35c-.31.51-.64,1-1,1.52l-.83,1.18a4.92,4.92,0,0,0-.89,3.15l1,15.14a6,6,0,0,0,4.82,5.48v6.55a2.1,2.1,0,0,0,2.1,2.1h6.25a2.1,2.1,0,0,0,2.1-2.1v-6.44H83.79V96.21A10.85,10.85,0,0,1,83,77.85v7l6.15,3.55,6.14-3.55v-7a10.85,10.85,0,0,1-.75,18.36v5.17h20.6v6.44a2.1,2.1,0,0,0,2.1,2.1h6.25a2.1,2.1,0,0,0,2.1-2.1v-6.54a6,6,0,0,0,4.92-5.52l.87-15.17a4.94,4.94,0,0,0-.84-3l-.93-1.39c-.3-.43-.54-.9-.81-1.35h4.22a3.82,3.82,0,0,0,0-7.63ZM56.11,88.37A4.84,4.84,0,1,1,61,83.53,4.84,4.84,0,0,1,56.11,88.37Zm8.26,5.76a2.87,2.87,0,1,1,2.87-2.87A2.87,2.87,0,0,1,64.37,94.13Zm49.61,0a2.87,2.87,0,1,1,2.87-2.87A2.87,2.87,0,0,1,114,94.13ZM56.85,71.27s4.64-22,32.33-22,32.32,22,32.32,22Zm65.39,17.1a4.84,4.84,0,1,1,4.83-4.84A4.84,4.84,0,0,1,122.24,88.37Z" style="fill:#3761E9"/></g></g></svg>